<?xml version="1.0" standalone="no"?>
<!DOCTYPE svg PUBLIC "-//W3C//DTD SVG 20010904//EN"
 "http://www.w3.org/TR/2001/REC-SVG-20010904/DTD/svg10.dtd">
<svg version="1.0" xmlns="http://www.w3.org/2000/svg"
 width="1800.000000pt" height="1800.000000pt" viewBox="0 0 1800.000000 1800.000000"
 preserveAspectRatio="xMidYMid meet">
<metadata>
Created by potrace 1.11, written by Peter Selinger 2001-2013
</metadata>
<g transform="translate(0.000000,1800.000000) scale(0.100000,-0.100000)"
fill="#000000" stroke="none">
<path d="M7938 17296 c-27 -7 -48 -12 -48 -10 0 3 -136 -42 -165 -55 -11 -5
-45 -19 -75 -31 -30 -12 -73 -30 -95 -40 -106 -47 -259 -106 -298 -115 -12 -2
-40 -9 -61 -14 -22 -5 -73 -8 -115 -6 -337 17 -363 15 -498 -31 -204 -70 -389
-206 -662 -487 -42 -43 -92 -87 -112 -97 -36 -19 -141 -49 -192 -56 -15 -2
-44 -6 -65 -9 -52 -7 -148 -14 -282 -20 -63 -3 -125 -7 -138 -9 -12 -3 -89 -8
-170 -11 -81 -3 -173 -10 -204 -16 -113 -20 -259 -82 -400 -171 -49 -30 -89
-48 -108 -48 -17 0 -46 -7 -65 -14 -19 -8 -35 -13 -35 -10 0 16 -155 -89 -200
-135 -60 -62 -220 -270 -220 -285 0 -2 -19 -35 -42 -72 -23 -38 -77 -138 -120
-223 l-79 -155 -72 -39 c-213 -115 -314 -210 -395 -372 -22 -44 -52 -97 -66
-118 -15 -21 -38 -61 -52 -89 -14 -28 -56 -101 -94 -162 -140 -229 -186 -341
-195 -478 -12 -181 -145 -519 -259 -662 -30 -38 -53 -73 -50 -77 2 -4 0 -10
-5 -13 -21 -13 -120 -357 -146 -506 -3 -19 -13 -71 -20 -115 -8 -44 -17 -100
-20 -125 -3 -25 -7 -56 -10 -70 -5 -28 -11 -72 -21 -170 -14 -125 -10 -360 8
-460 24 -131 26 -140 32 -180 3 -19 12 -77 21 -127 8 -51 21 -132 29 -180 17
-101 21 -126 35 -208 15 -82 19 -130 26 -270 4 -66 8 -140 10 -165 2 -25 6
-90 10 -145 3 -55 8 -111 10 -125 2 -14 7 -56 10 -95 4 -38 9 -86 11 -105 3
-32 19 -148 29 -210 3 -14 7 -43 10 -65 19 -126 84 -349 132 -453 53 -114 155
-224 253 -270 65 -30 124 -32 219 -7 35 9 74 14 85 11 54 -14 98 -79 135 -201
31 -99 38 -167 46 -430 2 -77 8 -166 13 -199 9 -59 8 -134 -3 -216 -4 -25 -9
-61 -11 -80 -24 -173 -168 -584 -224 -640 -3 -3 -10 -14 -17 -25 -7 -11 -41
-67 -76 -125 -90 -146 -135 -239 -205 -425 -118 -315 -130 -377 -127 -627 2
-153 6 -195 25 -258 12 -41 26 -80 32 -87 6 -7 7 -13 4 -13 -6 0 61 -132 126
-248 70 -125 190 -247 373 -376 132 -94 246 -179 271 -201 6 -5 28 -26 50 -45
78 -71 122 -133 144 -205 47 -153 217 -584 321 -810 10 -22 64 -143 119 -270
56 -126 106 -234 111 -240 5 -5 9 -14 9 -21 0 -9 49 -116 160 -349 46 -95 90
-197 90 -206 0 -5 6 -20 14 -32 8 -12 39 -87 69 -167 50 -132 65 -187 82 -305
4 -22 8 -51 11 -65 2 -14 9 -54 15 -90 26 -166 88 -418 136 -560 71 -211 138
-306 297 -422 28 -21 56 -41 61 -45 62 -50 259 -148 430 -216 148 -58 256 -94
375 -122 8 -2 40 -10 70 -19 46 -12 183 -39 305 -60 27 -5 136 -20 227 -31
217 -26 846 -26 1128 0 19 2 71 6 115 10 44 4 91 8 105 10 14 1 50 6 80 9 30
4 62 9 70 11 8 2 35 7 60 10 25 3 68 10 95 15 146 28 157 30 177 36 9 3 25 6
35 8 91 18 281 80 414 136 110 46 192 72 269 85 19 3 49 8 65 11 90 16 278 28
430 27 108 0 361 -12 394 -18 9 -1 43 -6 76 -9 136 -14 156 -17 275 -35 128
-20 143 -23 159 -26 200 -39 348 -69 396 -82 33 -8 67 -16 75 -18 211 -44 216
-45 355 -41 77 2 149 6 160 9 11 2 40 8 65 12 77 12 225 56 333 100 249 102
575 304 832 516 46 38 124 105 190 163 85 74 409 396 491 486 89 99 178 201
210 240 16 19 31 37 34 40 3 3 42 50 86 105 184 229 337 451 355 518 11 39 14
304 5 387 -3 19 -7 71 -11 115 -3 44 -8 96 -10 115 -2 19 -7 64 -10 100 -4 36
-8 81 -10 100 -2 19 -7 71 -11 115 -3 44 -8 96 -9 115 -21 236 -27 667 -12
807 9 86 32 199 53 263 15 45 66 143 88 166 15 18 25 30 71 94 328 446 629
1225 1064 2755 49 171 92 324 96 340 4 17 9 37 11 45 8 28 83 385 88 415 2 17
18 109 34 205 17 96 33 193 37 215 10 63 34 239 40 287 3 24 7 52 9 63 2 11 7
49 11 85 3 36 8 72 10 80 2 8 7 44 10 80 4 36 8 72 10 81 2 8 6 48 10 88 3 40
8 80 10 89 3 16 11 91 20 195 9 87 15 152 20 197 3 25 8 92 10 150 7 138 13
191 40 329 8 44 35 134 105 351 67 207 116 382 125 445 2 17 7 48 12 70 10 50
10 398 1 487 -4 37 -16 120 -27 185 -25 147 -30 184 -36 306 -6 115 -34 264
-77 401 -16 54 -31 104 -32 110 -1 6 -4 16 -7 21 -4 6 -12 28 -19 50 -40 128
-173 423 -262 580 -121 213 -204 315 -379 467 -95 82 -204 247 -359 543 -59
112 -87 165 -147 275 -14 24 -38 63 -53 86 -30 42 -146 155 -190 183 -14 8
-27 18 -30 22 -9 11 -125 85 -198 128 -156 91 -459 229 -582 266 -21 6 -247
116 -298 145 -48 27 -200 92 -259 111 -70 22 -225 94 -323 150 -54 30 -211
121 -240 139 -243 148 -461 260 -596 306 -66 23 -96 27 -189 27 -220 1 -319
-22 -408 -95 -85 -71 -172 -76 -292 -18 -37 17 -319 122 -396 146 -42 14 -105
31 -140 38 -35 7 -107 36 -159 63 -95 49 -255 105 -405 142 -161 40 -242 50
-380 46 -120 -4 -142 -7 -260 -37 -100 -25 -148 -25 -205 0 -38 16 -79 20
-280 25 -129 4 -255 9 -280 12 -25 2 -70 7 -100 10 -30 3 -68 7 -85 10 -74 13
-242 13 -287 1z m-3 -5109 c17 -4 50 -9 73 -12 69 -10 181 -51 234 -87 105
-71 144 -186 114 -336 -3 -15 -8 -56 -11 -92 -4 -35 -9 -68 -12 -73 -3 -5 -7
-80 -9 -166 -2 -112 2 -174 12 -216 8 -33 16 -67 18 -75 10 -39 51 -130 86
-189 49 -85 135 -167 321 -309 20 -15 51 -38 69 -52 18 -14 62 -46 99 -72 36
-25 89 -63 116 -82 28 -20 142 -102 255 -183 179 -127 363 -265 396 -298 6 -5
30 -26 54 -45 112 -90 347 -432 700 -1020 153 -255 336 -548 363 -583 16 -20
50 -49 75 -64 40 -24 58 -27 122 -27 66 0 85 5 155 38 44 21 152 62 240 91
268 89 367 130 495 208 175 106 311 235 470 442 85 112 205 234 335 344 182
152 315 225 470 257 47 10 160 4 213 -11 243 -70 449 -338 556 -722 21 -78 33
-131 42 -198 6 -42 6 -241 0 -273 -7 -33 -29 -104 -89 -277 -53 -151 -73 -283
-82 -540 -7 -185 -12 -235 -36 -325 -88 -325 -357 -690 -774 -1049 -107 -92
-119 -102 -263 -212 -114 -87 -154 -144 -187 -263 -27 -96 -26 -96 -53 -251
-38 -216 -47 -325 -47 -575 0 -177 8 -349 20 -408 1 -9 6 -39 10 -67 4 -27 8
-59 10 -70 6 -48 27 -154 40 -205 7 -30 16 -68 18 -85 3 -16 12 -60 21 -96 8
-37 17 -78 20 -90 3 -13 10 -49 16 -79 21 -103 25 -145 25 -250 -1 -86 -5
-114 -22 -153 -43 -94 -173 -202 -423 -353 -36 -21 -66 -42 -68 -46 -2 -5 -7
-8 -12 -8 -4 0 -61 -34 -127 -75 -65 -41 -138 -86 -163 -101 -25 -15 -142 -91
-260 -169 -236 -156 -328 -215 -334 -215 -3 0 -42 -23 -88 -51 -111 -69 -344
-181 -443 -215 -101 -34 -217 -38 -260 -10 -33 21 -72 64 -80 86 -7 22 -54 47
-106 59 -42 9 -74 13 -229 26 -196 18 -270 40 -270 80 0 12 19 51 42 86 43 66
301 330 487 499 58 52 130 118 160 146 31 28 70 64 86 78 202 184 475 451 475
466 0 25 -32 19 -82 -16 -99 -70 -496 -342 -504 -345 -5 -2 -49 -31 -99 -64
-49 -33 -98 -64 -107 -70 -32 -18 -352 -218 -405 -252 -28 -18 -53 -33 -55
-33 -3 0 -57 -31 -122 -70 -64 -38 -118 -70 -121 -70 -2 0 -46 -25 -99 -55
-52 -30 -98 -55 -101 -55 -4 0 -19 -9 -34 -19 -30 -21 -489 -254 -616 -313
-478 -219 -965 -386 -1265 -433 -25 -4 -54 -9 -64 -11 -44 -8 -176 -24 -241
-29 -38 -3 -86 -7 -105 -9 -142 -17 -526 -24 -650 -12 -128 13 -166 18 -180
21 -8 3 -29 7 -46 10 -68 11 -202 56 -254 84 -59 32 -124 89 -153 134 -28 44
-75 195 -87 282 -6 44 -13 91 -15 105 -6 41 -17 156 -30 320 -3 36 -7 90 -10
120 -2 30 -7 119 -10 197 l-7 143 25 0 c14 0 64 -18 113 -41 153 -71 298 -64
231 12 -30 34 -138 95 -447 251 -146 73 -291 151 -322 171 -140 94 -234 226
-245 344 -13 139 37 181 248 208 139 19 248 25 654 40 422 15 584 36 561 73
-11 18 -92 25 -406 37 -184 7 -340 14 -410 20 -30 3 -84 7 -120 10 -36 3 -85
8 -110 12 -24 3 -54 6 -65 8 -230 29 -391 89 -470 176 -45 51 -90 145 -104
219 -15 81 -6 282 15 352 3 10 7 28 9 40 3 13 18 67 34 122 55 184 26 291
-104 378 -71 47 -149 66 -435 103 -19 2 -60 9 -90 15 -30 6 -66 14 -80 16 -45
9 -155 57 -195 85 -180 125 -255 289 -210 457 17 60 86 198 124 245 59 74 144
170 186 212 28 28 60 66 72 86 25 40 102 210 170 374 25 61 50 121 56 135 6
14 11 27 11 30 2 6 41 107 68 174 20 49 117 312 122 331 2 6 6 17 9 25 3 8 24
74 48 145 80 246 59 393 -84 605 -40 59 -159 201 -267 317 -30 32 -76 83 -102
113 -26 30 -57 66 -69 80 -38 44 -125 183 -143 230 -10 25 -31 69 -48 98 -26
47 -28 68 -2 42 20 -20 117 -19 179 3 110 37 194 96 326 227 191 189 211 227
368 680 49 141 74 197 103 233 28 34 52 39 98 20 40 -16 109 -15 163 3 122 42
315 223 542 509 22 27 48 59 57 70 9 11 62 76 118 145 360 442 579 613 800
625 105 6 265 16 330 20 82 6 248 21 330 30 14 1 61 6 105 10 44 3 87 8 95 10
8 2 42 7 75 11 33 4 85 10 115 13 66 8 323 6 365 -2z m-3889 -3319 c113 -84
194 -185 264 -330 63 -130 93 -215 88 -250 -3 -21 -8 -23 -54 -21 -105 5 -188
66 -308 225 -80 107 -116 195 -121 298 -4 89 63 128 131 78z"/>
<path d="M5827 9704 c-1 -1 -38 -4 -82 -8 -235 -17 -453 -80 -638 -184 -151
-85 -206 -162 -194 -273 6 -57 24 -92 71 -142 82 -87 200 -109 331 -61 39 13
74 26 79 27 5 1 10 -16 11 -38 2 -39 13 -136 20 -185 2 -14 6 -47 10 -75 11
-90 38 -235 59 -319 20 -79 54 -164 81 -201 35 -49 36 -60 3 -104 -34 -47 -40
-113 -14 -154 14 -21 90 -93 230 -220 48 -43 112 -87 161 -108 99 -44 248 -56
346 -28 24 7 52 14 61 16 24 4 109 56 218 132 52 36 115 79 140 96 25 16 47
32 50 35 3 3 32 23 64 45 33 22 109 75 170 117 61 43 130 89 153 103 58 35
153 57 224 53 52 -3 59 -2 59 14 0 29 -76 104 -134 132 -64 32 -143 39 -206
20 -97 -30 -152 -41 -275 -51 -141 -12 -396 -6 -500 12 -394 68 -605 193 -679
402 -15 43 -22 93 -32 238 -3 50 -7 108 -9 130 -3 37 15 75 36 75 4 0 50 29
103 65 80 55 139 86 191 99 11 3 36 13 100 41 92 39 283 82 410 93 127 10 352
4 456 -13 134 -21 177 -28 194 -32 126 -28 126 -2 0 40 -153 50 -449 131 -520
142 -11 1 -36 6 -55 9 -19 4 -48 9 -65 12 -16 3 -37 6 -45 9 -8 2 -42 7 -75
11 -33 3 -71 8 -85 10 -78 11 -415 25 -423 18z"/>
<path d="M12507 6506 c-66 -32 -95 -62 -104 -105 -9 -47 -7 -58 23 -103 60
-93 222 -116 299 -43 28 25 35 40 35 69 0 48 -30 105 -84 161 -36 39 -48 45
-82 45 -21 0 -61 -11 -87 -24z"/>
<path d="M5675 6453 c-32 -8 -45 -23 -45 -53 0 -43 39 -90 127 -155 87 -64
106 -91 108 -159 3 -74 -14 -106 -102 -193 -45 -45 -90 -94 -99 -108 -15 -23
-15 -28 -2 -41 17 -18 81 -20 120 -5 69 27 160 159 204 295 19 62 20 74 8 118
-7 27 -29 70 -51 96 -45 56 -41 52 -128 127 -39 33 -72 63 -75 66 -8 10 -44
17 -65 12z"/>
</g>
</svg>
